<svg version="1.1" id="Layer_1" xmlns="http://www.w3.org/2000/svg" xmlns:xlink="http://www.w3.org/1999/xlink" x="0px" y="0px"
	 width="100%" viewBox="0 0 577 433" enable-background="new 0 0 577 433" xml:space="preserve">
<path fill="#000001" opacity="1.000000" stroke="none" 
	d="
M305.000000,434.000000 
	C203.333359,434.000000 102.166718,434.000000 1.000054,434.000000 
	C1.000036,289.666718 1.000036,145.333450 1.000018,1.000132 
	C193.333237,1.000088 385.666473,1.000088 577.999756,1.000044 
	C577.999878,145.333191 577.999878,289.666382 577.999939,433.999786 
	C487.166656,434.000000 396.333344,434.000000 305.000000,434.000000 
M261.639099,260.529968 
	C261.369781,259.983368 261.100494,259.436768 260.852539,258.295349 
	C260.843842,257.898743 260.835114,257.502167 261.404480,256.645752 
	C261.903778,256.192291 262.593750,255.249603 262.873840,255.358765 
	C267.048431,256.985565 267.545654,254.472244 267.832703,251.293762 
	C268.158661,247.683594 266.476959,246.670273 263.191956,246.966812 
	C260.429810,247.216125 257.642151,247.182983 254.389862,247.165863 
	C254.389862,247.165863 253.901764,247.153839 253.824188,246.729263 
	C253.581497,246.871445 253.338806,247.013626 252.602097,247.169250 
	C252.602097,247.169250 252.120728,247.281174 251.345856,247.043259 
	C249.183945,246.733673 246.982193,246.039230 244.874924,246.257446 
	C243.590729,246.390427 241.510925,247.868637 241.447495,248.849899 
	C241.322052,250.789993 242.347992,252.804535 242.897888,254.788300 
	C244.407791,253.894180 245.917694,253.000061 247.421707,252.109436 
	C247.897064,252.954910 248.486313,254.003006 249.666626,255.510590 
	C251.186935,255.351227 252.707245,255.191864 255.038742,254.947449 
	C254.023224,258.729462 253.126282,262.069855 252.070572,266.001556 
	C255.803711,266.001556 258.865112,266.001556 262.683807,265.809814 
	C262.405914,264.289429 262.128021,262.769043 261.811066,261.122955 
	C261.811066,261.122955 261.692291,261.179718 261.639099,260.529968 
M228.746307,248.616425 
	C228.445618,248.408737 228.144928,248.201050 227.299072,247.417679 
	C224.514587,247.417679 221.730103,247.417679 218.891693,247.417679 
	C218.734024,248.065079 218.395859,248.621002 218.544464,248.969193 
	C220.562775,253.698044 222.083374,258.363129 218.667923,263.201202 
	C218.399139,263.581970 219.608505,265.790894 220.055771,265.766602 
	C223.222458,265.594635 227.296982,267.939606 228.576553,263.866821 
	C231.485382,264.747772 234.256210,265.586945 236.987686,266.414185 
	C237.644791,260.807373 238.171051,256.317047 239.533432,251.701569 
	C239.637451,250.207382 239.741486,248.713211 239.867508,246.903214 
	C235.595703,247.434341 231.477997,245.250000 228.704071,249.282852 
	C228.704071,249.282852 228.579224,249.163239 228.746307,248.616425 
M231.674698,147.461304 
	C231.072708,147.298447 230.470703,147.135590 229.381653,146.470947 
	C223.805878,142.760117 213.388657,144.084488 208.548492,149.184113 
	C208.383224,149.467026 208.217941,149.749954 207.391800,150.335602 
	C204.882156,156.505600 207.865555,160.772629 212.016052,163.428802 
	C209.778168,165.765381 207.954727,167.669220 205.269836,170.472519 
	C204.066971,168.884537 202.172668,166.934998 200.947815,164.629745 
	C199.352982,161.628189 198.289474,158.344330 196.898666,154.554245 
	C196.801941,154.365799 196.705231,154.177368 196.694580,153.357758 
	C196.131104,152.261185 195.567627,151.164627 195.023224,150.005707 
	C195.023224,150.005707 194.961548,149.984589 194.918579,149.158966 
	C193.871246,148.491852 192.811005,147.239639 191.778870,147.262360 
	C187.997833,147.345673 184.208801,147.730759 180.459564,148.261826 
	C178.983673,148.470871 176.384964,149.395218 176.399429,149.937805 
	C176.452637,151.933411 177.387146,153.905533 178.058304,156.039459 
	C178.058304,156.039459 178.222122,156.004456 178.500885,156.879135 
	C178.030945,163.189987 179.292404,170.145447 172.222137,174.484177 
	C171.758682,172.580872 171.417984,171.181671 170.973724,169.357162 
	C168.703217,169.586288 166.620224,169.796494 164.184952,169.334869 
	C164.045792,169.123749 163.906631,168.912628 163.652466,167.890472 
	C163.372467,165.967880 163.092453,164.045273 162.808228,162.093719 
	C165.073303,161.740814 167.313309,161.391815 170.081223,160.960571 
	C169.495453,156.909866 168.970459,153.279312 168.415207,149.439651 
	C158.824936,150.791107 150.043839,152.028534 139.456619,153.520477 
	C141.552872,156.736649 143.724869,158.843201 144.385529,161.348312 
	C145.606461,165.978012 147.788559,171.674530 146.121002,175.370300 
	C144.489212,178.986710 144.598190,181.122589 145.729614,184.275360 
	C159.821655,182.427887 173.618210,180.619141 188.213989,178.705627 
	C187.525574,175.678787 186.870605,172.798950 186.085419,169.346619 
	C187.569412,169.199844 189.461792,169.012695 190.890488,168.871399 
	C190.890488,172.547089 190.890488,175.527863 190.890488,178.889587 
	C196.265335,178.303101 201.345886,177.748749 206.580292,177.177582 
	C206.773529,175.185501 206.936432,173.506088 207.207047,170.716370 
	C212.823563,177.108261 219.327621,177.891754 225.856247,175.653290 
	C229.082184,174.547226 233.008316,171.897263 234.082550,169.004486 
	C235.442383,165.342545 235.327301,160.281036 229.795090,157.467438 
	C229.725876,157.035233 229.518478,156.255814 229.607239,156.220505 
	C234.831161,154.141159 235.129486,153.142136 231.674698,147.461304 
M372.576721,252.544098 
	C377.657410,255.972870 376.627960,260.889587 374.992340,265.722290 
	C379.049347,265.722290 382.298737,265.722290 385.642853,265.722290 
	C385.642853,264.314911 386.125366,262.607941 385.565063,262.134155 
	C381.731720,258.892609 384.642578,256.685150 386.520416,254.288635 
	C387.222229,253.392960 388.151337,252.635025 388.677826,251.653854 
	C389.182129,250.713974 389.777557,249.366211 389.444672,248.568344 
	C389.139923,247.837982 387.659943,247.263092 386.676208,247.228104 
	C385.134644,247.173264 383.574890,247.630615 381.201355,247.719177 
	C377.880676,247.393845 374.559998,247.068527 370.232727,246.644592 
	C371.127167,249.231369 371.616974,250.647919 372.576721,252.544098 
M301.245819,247.778656 
	C294.281830,247.612473 287.317932,247.443634 280.353180,247.318527 
	C280.283661,247.317276 280.203735,247.894791 280.051880,248.991135 
	C281.719025,254.608032 283.386139,260.224915 285.361694,266.880920 
	C288.973602,265.708069 292.164886,264.671844 295.570770,263.565887 
	C297.476685,266.474243 297.476685,266.474243 304.270599,265.492340 
	C305.735901,260.979095 307.209137,256.441406 309.545044,251.561371 
	C310.161346,251.721115 311.301086,251.846802 311.314056,252.045807 
	C311.464417,254.356689 311.625580,256.693817 311.432251,258.994476 
	C311.035431,263.716400 313.752319,265.579254 317.799316,265.935699 
	C325.933350,266.652161 327.186768,265.333588 327.948364,256.974548 
	C328.278320,253.353195 328.486603,249.179901 324.771820,248.138489 
	C321.397064,247.192383 317.371887,248.566437 313.759491,248.798416 
	C313.759491,248.798416 313.714539,248.915878 312.841217,249.313843 
	C312.051758,249.308762 310.816071,249.626282 310.542633,249.248108 
	C308.119080,245.895950 305.115662,246.987808 301.245819,247.778656 
M373.247131,176.741058 
	C373.349304,174.582748 373.717041,172.393417 373.469849,170.275909 
	C373.271362,168.575851 372.652130,165.839874 371.645691,165.548935 
	C369.653656,164.973068 366.883545,164.009888 365.381195,167.481552 
	C365.046570,168.254776 361.456299,167.619141 359.364990,167.632172 
	C359.658325,163.080109 359.951691,158.528061 360.245026,153.975998 
	C365.587677,153.312775 363.557800,149.401764 363.963928,145.863495 
	C360.042236,145.569458 356.459564,145.202332 352.868347,145.073364 
	C351.084778,145.009338 349.285492,145.382690 347.493317,145.558167 
	C347.809479,147.859146 348.391541,150.160629 348.387329,152.461014 
	C348.378143,157.488983 349.638641,163.433044 347.400543,167.260254 
	C345.538086,170.445114 345.094879,172.603195 345.444275,176.300751 
	C355.119446,176.698044 364.475830,177.082245 374.587250,177.528030 
	C380.132965,178.508499 385.678711,179.488968 392.253448,180.651352 
	C391.792572,177.069336 392.081390,174.415817 391.064789,172.430847 
	C388.936493,168.275299 390.160217,159.685532 393.555878,156.200195 
	C394.653412,155.073639 395.079041,152.965393 395.129456,151.285736 
	C395.154144,150.463913 393.712891,149.005630 392.766357,148.847870 
	C388.258118,148.096405 383.691895,147.692764 378.674377,147.110596 
	C378.509338,149.890732 377.555756,152.442307 378.403412,154.035583 
	C381.900482,160.608856 381.961121,166.390533 376.293030,171.784988 
	C375.613922,172.431351 375.900085,174.000916 375.480042,175.037720 
	C375.103027,175.968277 374.369598,176.754410 373.247131,176.741058 
M308.781769,154.014297 
	C311.852112,151.682419 311.793152,149.074631 309.067810,146.223434 
	C304.857666,141.818893 299.365051,141.783310 294.317780,142.704391 
	C290.892090,143.329559 286.536530,145.688766 285.081696,148.540268 
	C283.299927,152.032669 283.389191,157.084915 288.200745,160.391800 
	C287.089294,161.290268 285.977844,162.188751 284.403992,163.634064 
	C283.835510,166.836960 284.440826,169.929565 287.527191,171.219681 
	C291.160217,172.738312 295.097626,173.677063 298.990479,174.389893 
	C304.403290,175.380997 308.520996,172.421951 310.722473,168.097092 
	C313.023071,163.577469 311.396393,159.141479 307.301056,155.580856 
	C307.565033,155.139053 307.829010,154.697235 308.781769,154.014297 
M262.825378,189.799164 
	C256.182159,189.947815 249.539597,190.152451 242.895554,190.228882 
	C236.637100,190.300873 231.788406,193.125961 228.032669,197.869522 
	C222.828964,204.441879 221.961075,211.666138 225.477234,219.315872 
	C229.301041,227.634949 236.142502,231.339996 244.989426,231.382187 
	C267.630951,231.490143 290.273376,231.456024 312.915253,231.396301 
	C317.886536,231.383194 322.897034,231.358612 327.819244,230.760895 
	C337.884644,229.538620 344.935608,220.378647 344.617737,209.462616 
	C344.328278,199.523514 336.369598,190.925751 326.495148,190.338974 
	C320.555176,189.985977 314.579498,190.254974 308.620300,190.199203 
	C293.653412,190.059143 278.686798,189.893311 262.825378,189.799164 
M344.349487,152.548615 
	C343.577301,147.231415 339.861206,144.289413 335.169952,143.793182 
	C328.621155,143.100433 321.944305,143.618591 314.189087,143.618591 
	C314.710510,145.957092 314.677216,148.636749 315.882446,150.526550 
	C317.545349,153.134018 318.378906,164.655762 315.832001,166.099045 
	C311.803955,168.381668 313.953735,171.314560 313.687103,174.499298 
	C319.224213,174.499298 324.328979,174.499298 330.678345,174.499298 
	C329.819244,171.228867 329.004333,168.126663 328.075104,164.589157 
	C336.045074,165.166229 344.324127,164.991806 344.349487,152.548615 
M406.360199,171.399826 
	C406.159027,172.019012 406.058960,173.118637 405.741577,173.185410 
	C400.891998,174.205627 402.173584,177.976212 401.666260,181.486069 
	C406.088013,181.999924 410.151245,182.561172 414.232971,182.898407 
	C415.671997,183.017288 418.345245,182.793884 418.417938,182.374115 
	C418.766388,180.361038 419.053833,177.902527 418.186920,176.201675 
	C416.195160,172.293869 416.564728,164.095673 419.707550,160.423447 
	C419.973114,161.139496 420.401093,161.727341 420.363922,162.284149 
	C420.101929,166.210037 423.025085,166.825745 425.564636,166.390793 
	C426.776367,166.183258 428.073669,163.642487 428.437500,161.964569 
	C429.018829,159.283371 428.854340,156.440445 429.012177,153.537247 
	C419.594788,152.132065 410.655762,150.720963 401.683990,149.564224 
	C400.643799,149.430115 398.595856,150.537048 398.426208,151.359650 
	C397.673279,155.010498 397.434784,158.767426 397.003510,162.544418 
	C399.694183,162.898270 401.743866,163.167831 403.643188,163.417618 
	C404.619598,161.555725 405.438660,159.993835 406.257721,158.431946 
	C406.752411,158.594589 407.247101,158.757217 407.741791,158.919846 
	C407.319855,162.791412 406.897919,166.662964 406.360199,171.399826 
M244.922501,160.012177 
	C244.965317,162.162079 245.791260,165.743378 244.918961,166.220627 
	C240.524704,168.624710 242.577377,171.584305 243.159363,174.599228 
	C247.424133,174.599228 251.413147,174.764160 255.376328,174.516266 
	C256.914490,174.420059 259.699860,173.322266 259.672302,172.798859 
	C259.559387,170.653580 258.536774,168.566360 257.934265,166.433685 
	C257.381378,164.476822 255.914536,161.909927 256.641449,160.625107 
	C258.692657,156.999542 261.924805,154.058990 264.160645,150.513672 
	C265.239990,148.802155 265.305847,146.348328 265.417664,144.209030 
	C265.442719,143.729431 263.732056,142.698257 262.833557,142.713120 
	C259.421570,142.769592 256.014923,143.150909 252.496582,143.419144 
	C252.496582,147.282364 252.496582,150.771133 252.496582,154.259903 
	C251.720779,154.205994 250.944977,154.152084 250.169174,154.098175 
	C250.283844,152.457520 250.504379,150.815674 250.485641,149.176559 
	C250.463577,147.246399 250.234192,145.318588 250.099319,143.453857 
	C246.072525,143.453857 242.584946,143.320663 239.116852,143.522507 
	C237.816452,143.598206 235.542664,144.342087 235.474060,144.972900 
	C235.256165,146.976089 235.209106,149.556854 236.296082,151.027191 
	C238.593735,154.135117 241.651611,156.681046 244.922501,160.012177 
M347.216583,266.083832 
	C351.257935,265.547729 350.122437,263.105408 348.604462,261.310333 
	C347.156525,259.598053 346.605621,258.821960 348.113220,256.520142 
	C350.832062,252.368896 347.643066,247.364105 342.596649,247.172882 
	C339.772095,247.065872 336.938416,247.213760 334.112305,247.130615 
	C330.070801,247.011719 330.069855,248.748306 331.042572,252.109131 
	C331.873291,254.979385 332.340973,258.604858 331.286407,261.216888 
	C329.740448,265.046173 330.500183,265.854340 334.220428,266.050110 
	C338.328033,266.266296 342.494293,263.630676 347.216583,266.083832 
M360.726379,265.660583 
	C361.647980,265.341705 362.626312,264.649780 363.479736,264.779510 
	C365.420410,265.074463 367.299774,265.773010 370.815704,266.759888 
	C369.370453,262.975189 368.508362,260.717621 367.566620,258.251465 
	C370.933807,252.594589 369.425201,247.637527 363.746063,247.228302 
	C359.670624,246.934631 355.556976,247.171158 350.207703,247.171158 
	C353.968781,253.644318 354.053772,259.572052 350.225861,265.934967 
	C354.317505,265.934967 357.113556,265.934967 360.726379,265.660583 
M182.058151,247.170502 
	C177.571564,247.018967 179.429047,249.538177 179.739166,251.945663 
	C180.145172,255.097641 179.784851,258.355103 179.670349,261.564178 
	C179.621979,262.919281 179.359863,264.266724 179.151169,265.975922 
	C183.067322,265.975922 186.502991,266.554474 189.618271,265.803650 
	C192.405731,265.131836 196.504913,263.444519 197.056702,261.402924 
	C197.984558,257.969818 197.554245,253.379745 195.898880,250.216461 
	C193.152100,244.967514 187.453705,247.378647 182.058151,247.170502 
M209.791901,247.162781 
	C203.576340,246.687546 200.095459,248.658447 199.600983,252.932953 
	C198.750656,260.283356 200.581863,264.993134 204.649658,265.917908 
	C209.699524,267.065918 215.513702,265.050232 216.347855,261.862335 
	C217.986893,255.598328 215.356552,248.944885 209.791901,247.162781 
M209.921631,205.789001 
	C209.539841,204.027802 209.158051,202.266602 208.776245,200.505402 
	C208.559250,200.476089 208.342239,200.446777 208.125229,200.417465 
	C207.554291,203.226807 206.983353,206.036163 206.456543,208.628403 
	C203.511276,209.254379 200.501251,209.894119 197.491211,210.533859 
	C197.363297,211.098389 197.235382,211.662903 197.107468,212.227432 
	C205.879913,209.785828 208.181961,214.512024 208.883972,221.386795 
	C209.393265,218.349777 209.902557,215.312759 210.404327,212.320496 
	C213.150192,211.981384 215.823135,211.651291 218.496063,211.321182 
	C216.567902,209.937744 214.730530,209.732727 213.086197,209.057587 
	C211.906952,208.573425 210.985901,207.460434 209.921631,205.789001 
M358.912720,216.685516 
	C359.105103,218.087448 359.297485,219.489380 359.489868,220.891312 
	C359.836700,220.841537 360.183533,220.791763 360.530365,220.742004 
	C361.036835,217.902252 361.543304,215.062515 362.036133,212.299133 
	C364.540741,212.036484 366.772034,211.802475 369.003326,211.568481 
	C369.002533,211.132187 369.001740,210.695892 369.000946,210.259598 
	C366.685516,209.706696 364.370056,209.153793 362.246704,208.646774 
	C361.559113,205.855408 360.890686,203.141800 360.222260,200.428207 
	C359.959320,200.488495 359.696381,200.548782 359.433441,200.609070 
	C358.892639,203.398849 358.351807,206.188644 357.860687,208.722000 
	C355.101990,209.265335 352.721405,209.734207 350.340851,210.203064 
	C350.316620,210.481339 350.292389,210.759613 350.268158,211.037888 
	C352.845459,211.529907 355.422791,212.021942 357.964600,212.507187 
	C358.178619,213.640701 358.390656,214.763870 358.912720,216.685516 
z"/>
<path fill="#F3F9FA" opacity="1.000000" stroke="none" 
	d="
M263.272705,189.768494 
	C278.686798,189.893311 293.653412,190.059143 308.620300,190.199203 
	C314.579498,190.254974 320.555176,189.985977 326.495148,190.338974 
	C336.369598,190.925751 344.328278,199.523514 344.617737,209.462616 
	C344.935608,220.378647 337.884644,229.538620 327.819244,230.760895 
	C322.897034,231.358612 317.886536,231.383194 312.915253,231.396301 
	C290.273376,231.456024 267.630951,231.490143 244.989426,231.382187 
	C236.142502,231.339996 229.301041,227.634949 225.477234,219.315872 
	C221.961075,211.666138 222.828964,204.441879 228.032669,197.869522 
	C231.788406,193.125961 236.637100,190.300873 242.895554,190.228882 
	C249.539597,190.152451 256.182159,189.947815 263.272705,189.768494 
M253.740112,210.187073 
	C253.861923,210.505249 253.983734,210.823441 254.185287,211.706497 
	C254.162277,212.085342 254.139282,212.464188 253.631577,213.379776 
	C254.214066,214.483414 254.796555,215.587036 255.811737,216.629623 
	C256.105103,216.606995 256.394379,216.631775 257.587738,217.004272 
	C260.728333,216.635269 263.868958,216.266281 266.994568,215.350952 
	C267.000397,214.275467 267.006226,213.199997 267.055359,211.345947 
	C266.631470,210.409546 266.207550,209.473145 266.254425,207.979614 
	C266.053131,206.050522 266.180603,202.574631 265.595703,202.450302 
	C262.450836,201.781921 259.128845,201.946838 255.348297,201.929703 
	C255.173050,202.219193 254.997787,202.508667 254.533829,203.244980 
	C254.420364,203.760498 254.306915,204.276016 253.986893,205.478256 
	C254.028610,207.006699 254.070312,208.535156 254.084381,210.033737 
	C254.084381,210.033737 254.127213,210.069992 253.740112,210.187073 
M286.992798,201.982407 
	C286.992798,201.982407 286.908508,201.924728 286.211761,202.148941 
	C283.313080,204.522110 285.698944,206.232300 286.739075,208.433578 
	C286.563232,208.651001 286.348938,208.819489 285.305420,208.933929 
	C284.515686,208.907333 283.725983,208.880737 282.801666,208.045990 
	C281.990356,205.748428 281.219635,201.509567 280.360626,201.491592 
	C276.766846,201.416458 272.781281,201.916229 269.658234,203.566162 
	C267.396118,204.761261 269.184052,213.813141 271.577301,215.710052 
	C275.695404,218.974121 278.881226,216.417114 282.817108,214.109329 
	C287.282288,219.915970 293.187805,215.693054 298.312317,217.015671 
	C299.341522,213.099686 299.290344,210.384567 295.219543,209.247070 
	C296.138184,207.192612 297.056824,205.138153 297.975464,203.083694 
	C295.676788,202.398819 293.378082,201.713943 290.314178,200.848526 
	C289.184265,201.201096 288.054352,201.553665 286.992798,201.982407 
M302.028625,205.992996 
	C302.028625,205.992996 302.016815,205.920609 302.516876,206.437836 
	C304.549316,208.052902 306.581757,209.667969 308.688812,211.342316 
	C305.425201,211.561752 302.728302,211.743088 299.934479,212.672974 
	C301.196472,213.847183 302.266449,215.451416 303.755798,216.116409 
	C308.568390,218.265137 313.889526,215.954376 313.800446,211.910553 
	C313.723969,208.437943 313.312958,204.972717 313.023987,201.162628 
	C310.517670,201.047577 307.562469,200.958771 304.614380,200.763214 
	C301.753357,200.573441 300.879852,202.037827 301.046722,205.291061 
	C301.388245,205.505157 301.729797,205.719254 302.028625,205.992996 
z"/>
<path fill="#DFECF4" opacity="1.000000" stroke="none" 
	d="
M196.997314,155.181946 
	C198.289474,158.344330 199.352982,161.628189 200.947815,164.629745 
	C202.172668,166.934998 204.066971,168.884537 205.269836,170.472519 
	C207.954727,167.669220 209.778168,165.765381 212.016052,163.428802 
	C207.865555,160.772629 204.882156,156.505600 207.734756,150.191132 
	C208.077713,150.046677 208.101746,150.063858 208.073929,150.486969 
	C207.970840,157.729309 210.930542,161.058975 217.622757,162.069733 
	C219.709351,162.384888 221.836319,163.055664 223.687668,164.044891 
	C224.625992,164.546265 224.991852,166.119049 225.616516,167.207428 
	C224.558594,167.801193 223.471695,168.940826 222.448212,168.886459 
	C219.369843,168.722992 216.322906,168.037506 213.249756,167.673477 
	C211.919388,167.515884 210.554825,167.647049 209.116013,167.647049 
	C211.427094,170.229218 213.116440,172.237366 214.957077,174.095627 
	C215.471329,174.614807 216.450424,174.971542 217.184830,174.923370 
	C220.461899,174.708389 223.847183,174.751465 226.967682,173.886841 
	C231.042679,172.757736 234.103989,167.423233 232.619064,164.699890 
	C231.318176,162.314117 229.597565,160.157211 228.394180,157.943726 
	C229.166779,158.038010 229.607559,158.087784 230.048325,158.137573 
	C235.327301,160.281036 235.442383,165.342545 234.082550,169.004486 
	C233.008316,171.897263 229.082184,174.547226 225.856247,175.653290 
	C219.327621,177.891754 212.823563,177.108261 207.207047,170.716370 
	C206.936432,173.506088 206.773529,175.185501 206.580292,177.177582 
	C201.345886,177.748749 196.265335,178.303101 190.890488,178.889587 
	C190.890488,175.527863 190.890488,172.547089 190.890488,168.871399 
	C189.461792,169.012695 187.569412,169.199844 186.085419,169.346619 
	C186.870605,172.798950 187.525574,175.678787 188.213989,178.705627 
	C173.618210,180.619141 159.821655,182.427887 145.729614,184.275360 
	C144.598190,181.122589 144.489212,178.986710 146.121002,175.370300 
	C147.788559,171.674530 145.606461,165.978012 144.385529,161.348312 
	C143.724869,158.843201 141.552872,156.736649 139.456619,153.520477 
	C150.043839,152.028534 158.824936,150.791107 168.415207,149.439651 
	C168.970459,153.279312 169.495453,156.909866 170.081223,160.960571 
	C167.313309,161.391815 165.073303,161.740814 162.808228,162.093719 
	C163.092453,164.045273 163.372467,165.967880 163.327072,168.355194 
	C162.227066,169.054977 161.413162,169.205521 160.686401,169.543488 
	C159.354584,170.162842 158.035339,170.837433 156.841629,171.675293 
	C156.739273,171.747162 157.685226,173.938004 158.020950,173.904602 
	C159.863510,173.721420 161.752869,173.347397 163.440613,172.612640 
	C164.065826,172.340454 164.186493,170.909286 164.537247,170.006683 
	C166.620224,169.796494 168.703217,169.586288 170.973724,169.357162 
	C171.417984,171.181671 171.758682,172.580872 172.222137,174.484177 
	C179.292404,170.145447 178.030945,163.189987 178.727631,156.538925 
	C181.260803,162.389771 179.145721,167.890930 176.459305,173.390137 
	C175.755615,174.830627 175.812759,176.642792 175.520493,178.284271 
	C178.226791,178.226593 181.096878,178.669647 183.558640,177.864395 
	C184.540817,177.543121 185.474747,174.140915 184.931564,172.710464 
	C183.854691,169.874557 184.662201,168.529861 187.160843,167.888153 
	C188.657074,167.503891 190.759583,167.094421 191.744049,167.829178 
	C192.590714,168.461075 192.480164,170.718872 192.358353,172.222549 
	C192.186630,174.342529 191.102142,177.223175 194.578278,176.832550 
	C198.068253,176.440414 201.422577,174.840973 204.836334,173.770630 
	C204.523575,173.041702 204.397339,172.116379 203.868912,171.614578 
	C199.149857,167.133301 197.975464,161.205505 196.997314,155.181946 
M156.177994,163.618820 
	C156.957672,163.478500 157.737350,163.338165 159.228867,163.062225 
	C160.174683,162.138199 163.638214,163.504913 161.611908,159.457275 
	C159.945801,159.596954 158.279678,159.736633 156.308533,159.808975 
	C156.308533,159.808975 156.116257,160.055176 155.518326,160.206802 
	C155.677811,161.127060 155.837296,162.047333 155.986465,163.003754 
	C155.986465,163.003754 156.023254,163.011673 156.177994,163.618820 
z"/>
<path fill="#E4EFF4" opacity="1.000000" stroke="none" 
	d="
M344.333801,152.905945 
	C344.324127,164.991806 336.045074,165.166229 328.075104,164.589157 
	C329.004333,168.126663 329.819244,171.228867 330.678345,174.499298 
	C324.328979,174.499298 319.224213,174.499298 313.687103,174.499298 
	C313.953735,171.314560 311.803955,168.381668 315.832001,166.099045 
	C318.378906,164.655762 317.545349,153.134018 315.882446,150.526550 
	C314.677216,148.636749 314.710510,145.957092 314.189087,143.618591 
	C321.944305,143.618591 328.621155,143.100433 335.169952,143.793182 
	C339.861206,144.289413 343.577301,147.231415 344.333801,152.905945 
M333.754547,155.284393 
	C334.502686,149.386703 330.129974,152.726425 327.867584,151.659698 
	C326.611908,157.509506 330.147186,156.315277 333.754547,155.284393 
z"/>
<path fill="#E4EFF4" opacity="1.000000" stroke="none" 
	d="
M307.085876,156.051376 
	C311.396393,159.141479 313.023071,163.577469 310.722473,168.097092 
	C308.520996,172.421951 304.403290,175.380997 298.990479,174.389893 
	C295.097626,173.677063 291.160217,172.738312 287.527191,171.219681 
	C284.440826,169.929565 283.835510,166.836960 285.087952,163.329086 
	C288.178619,163.294037 291.645813,162.668198 292.780975,164.012131 
	C295.516083,167.250305 298.048248,166.235840 300.887207,165.626266 
	C301.084656,165.043335 301.282074,164.460403 301.479492,163.877472 
	C297.116852,162.451187 292.754181,161.024918 288.391541,159.598633 
	C283.389191,157.084915 283.299927,152.032669 285.081696,148.540268 
	C286.536530,145.688766 290.892090,143.329559 294.317780,142.704391 
	C299.365051,141.783310 304.857666,141.818893 309.067810,146.223434 
	C311.793152,149.074631 311.852112,151.682419 307.993195,154.144638 
	C305.385376,153.870987 302.516663,154.039383 301.929779,152.963272 
	C299.474731,148.461792 297.078674,151.444717 294.667267,151.606476 
	C294.586792,152.123764 294.506317,152.641052 294.425842,153.158340 
	C298.645844,154.122681 302.865875,155.087036 307.085876,156.051376 
z"/>
<path fill="#DFECF4" opacity="1.000000" stroke="none" 
	d="
M406.418091,170.967178 
	C406.897919,166.662964 407.319855,162.791412 407.741791,158.919846 
	C407.247101,158.757217 406.752411,158.594589 406.257721,158.431946 
	C405.438660,159.993835 404.619598,161.555725 403.643188,163.417618 
	C401.743866,163.167831 399.694183,162.898270 397.003510,162.544418 
	C397.434784,158.767426 397.673279,155.010498 398.426208,151.359650 
	C398.595856,150.537048 400.643799,149.430115 401.683990,149.564224 
	C410.655762,150.720963 419.594788,152.132065 429.012177,153.537247 
	C428.854340,156.440445 429.018829,159.283371 428.437500,161.964569 
	C428.073669,163.642487 426.776367,166.183258 425.564636,166.390793 
	C423.025085,166.825745 420.101929,166.210037 420.363922,162.284149 
	C420.401093,161.727341 419.973114,161.139496 419.707550,160.423447 
	C416.564728,164.095673 416.195160,172.293869 418.186920,176.201675 
	C419.053833,177.902527 418.766388,180.361038 418.417938,182.374115 
	C418.345245,182.793884 415.671997,183.017288 414.232971,182.898407 
	C410.151245,182.561172 406.088013,181.999924 401.666260,181.486069 
	C402.173584,177.976212 400.891998,174.205627 405.741577,173.185410 
	C406.058960,173.118637 406.159027,172.019012 406.418091,170.967178 
z"/>
<path fill="#DCECF4" opacity="1.000000" stroke="none" 
	d="
M244.660065,159.734833 
	C241.651611,156.681046 238.593735,154.135117 236.296082,151.027191 
	C235.209106,149.556854 235.256165,146.976089 235.474060,144.972900 
	C235.542664,144.342087 237.816452,143.598206 239.116852,143.522507 
	C242.584946,143.320663 246.072525,143.453857 250.099319,143.453857 
	C250.234192,145.318588 250.463577,147.246399 250.485641,149.176559 
	C250.504379,150.815674 250.283844,152.457520 250.169174,154.098175 
	C250.944977,154.152084 251.720779,154.205994 252.496582,154.259903 
	C252.496582,150.771133 252.496582,147.282364 252.496582,143.419144 
	C256.014923,143.150909 259.421570,142.769592 262.833557,142.713120 
	C263.732056,142.698257 265.442719,143.729431 265.417664,144.209030 
	C265.305847,146.348328 265.239990,148.802155 264.160645,150.513672 
	C261.924805,154.058990 258.692657,156.999542 256.641449,160.625107 
	C255.914536,161.909927 257.381378,164.476822 257.934265,166.433685 
	C258.536774,168.566360 259.559387,170.653580 259.672302,172.798859 
	C259.699860,173.322266 256.914490,174.420059 255.376328,174.516266 
	C251.413147,174.764160 247.424133,174.599228 243.159363,174.599228 
	C242.577377,171.584305 240.524704,168.624710 244.918961,166.220627 
	C245.791260,165.743378 244.965317,162.162079 244.660065,159.734833 
z"/>
<path fill="#DFECF4" opacity="1.000000" stroke="none" 
	d="
M373.832245,177.466431 
	C364.475830,177.082245 355.119446,176.698044 345.444275,176.300751 
	C345.094879,172.603195 345.538086,170.445114 347.400543,167.260254 
	C349.638641,163.433044 348.378143,157.488983 348.387329,152.461014 
	C348.391541,150.160629 347.809479,147.859146 347.493317,145.558167 
	C349.285492,145.382690 351.084778,145.009338 352.868347,145.073364 
	C356.459564,145.202332 360.042236,145.569458 363.963928,145.863495 
	C363.557800,149.401764 365.587677,153.312775 360.245026,153.975998 
	C359.951691,158.528061 359.658325,163.080109 359.364990,167.632172 
	C361.456299,167.619141 365.046570,168.254776 365.381195,167.481552 
	C366.883545,164.009888 369.653656,164.973068 371.645691,165.548935 
	C372.652130,165.839874 373.271362,168.575851 373.469849,170.275909 
	C373.717041,172.393417 373.349304,174.582748 373.548523,177.141724 
	C373.849945,177.542389 373.832245,177.466446 373.832245,177.466431 
z"/>
<path fill="#E4EFF4" opacity="1.000000" stroke="none" 
	d="
M196.947998,154.868103 
	C197.975464,161.205505 199.149857,167.133301 203.868912,171.614578 
	C204.397339,172.116379 204.523575,173.041702 204.836334,173.770630 
	C201.422577,174.840973 198.068253,176.440414 194.578278,176.832550 
	C191.102142,177.223175 192.186630,174.342529 192.358353,172.222549 
	C192.480164,170.718872 192.590714,168.461075 191.744049,167.829178 
	C190.759583,167.094421 188.657074,167.503891 187.160843,167.888153 
	C184.662201,168.529861 183.854691,169.874557 184.931564,172.710464 
	C185.474747,174.140915 184.540817,177.543121 183.558640,177.864395 
	C181.096878,178.669647 178.226791,178.226593 175.520493,178.284271 
	C175.812759,176.642792 175.755615,174.830627 176.459305,173.390137 
	C179.145721,167.890930 181.260803,162.389771 178.588242,156.101593 
	C178.222122,156.004456 178.058304,156.039459 178.030945,155.558136 
	C177.600327,150.542435 179.801086,148.640213 184.187836,149.007370 
	C187.781158,149.308121 191.370468,149.657028 194.961548,149.984589 
	C194.961548,149.984589 195.023224,150.005707 195.006210,150.382690 
	C195.528976,151.836105 196.068741,152.912521 196.608521,153.988953 
	C196.705231,154.177368 196.801941,154.365799 196.947998,154.868103 
z"/>
<path fill="#E1EDF4" opacity="1.000000" stroke="none" 
	d="
M374.209747,177.497238 
	C373.832245,177.466446 373.849945,177.542389 373.821655,177.573318 
	C374.369598,176.754410 375.103027,175.968277 375.480042,175.037720 
	C375.900085,174.000916 375.613922,172.431351 376.293030,171.784988 
	C381.961121,166.390533 381.900482,160.608856 378.403412,154.035583 
	C377.555756,152.442307 378.509338,149.890732 378.674377,147.110596 
	C383.691895,147.692764 388.258118,148.096405 392.766357,148.847870 
	C393.712891,149.005630 395.154144,150.463913 395.129456,151.285736 
	C395.079041,152.965393 394.653412,155.073639 393.555878,156.200195 
	C390.160217,159.685532 388.936493,168.275299 391.064789,172.430847 
	C392.081390,174.415817 391.792572,177.069336 392.253448,180.651352 
	C385.678711,179.488968 380.132965,178.508499 374.209747,177.497238 
z"/>
<path fill="#DFECF4" opacity="1.000000" stroke="none" 
	d="
M308.682373,251.903748 
	C307.209137,256.441406 305.735901,260.979095 304.270599,265.492340 
	C297.476685,266.474243 297.476685,266.474243 295.570770,263.565887 
	C292.164886,264.671844 288.973602,265.708069 285.361694,266.880920 
	C283.386139,260.224915 281.719025,254.608032 280.523010,248.475021 
	C283.440521,247.958908 285.886902,247.958908 288.173492,247.958908 
	C288.914368,250.511551 289.549927,252.701218 290.185455,254.890884 
	C290.564331,254.783203 290.943207,254.675522 291.322083,254.567825 
	C291.322083,252.510056 291.322083,250.452301 291.322083,248.095612 
	C294.168945,248.095612 296.889008,248.095612 299.815948,248.095612 
	C299.928253,249.657333 299.795898,251.023087 300.198730,252.206680 
	C300.437500,252.908234 301.520721,253.322388 302.224243,253.865768 
	C302.445587,252.994629 302.666931,252.123474 303.035522,250.938202 
	C305.995667,246.840118 306.967743,250.967636 308.682373,251.903748 
z"/>
<path fill="#D3E4EF" opacity="1.000000" stroke="none" 
	d="
M346.875153,266.191589 
	C342.494293,263.630676 338.328033,266.266296 334.220428,266.050110 
	C330.500183,265.854340 329.740448,265.046173 331.286407,261.216888 
	C332.340973,258.604858 331.873291,254.979385 331.042572,252.109131 
	C330.069855,248.748306 330.070801,247.011719 334.112305,247.130615 
	C336.938416,247.213760 339.772095,247.065872 342.596649,247.172882 
	C347.643066,247.364105 350.832062,252.368896 348.113220,256.520142 
	C346.605621,258.821960 347.156525,259.598053 348.604462,261.310333 
	C350.122437,263.105408 351.257935,265.547729 346.875153,266.191589 
z"/>
<path fill="#DCECF4" opacity="1.000000" stroke="none" 
	d="
M238.697296,251.826721 
	C238.171051,256.317047 237.644791,260.807373 236.987686,266.414185 
	C234.256210,265.586945 231.485382,264.747772 228.576553,263.866821 
	C227.296982,267.939606 223.222458,265.594635 220.055771,265.766602 
	C219.608505,265.790894 218.399139,263.581970 218.667923,263.201202 
	C222.083374,258.363129 220.562775,253.698044 218.544464,248.969193 
	C218.395859,248.621002 218.734024,248.065079 218.891693,247.417679 
	C221.730103,247.417679 224.514587,247.417679 227.552856,247.976349 
	C228.064163,248.744431 228.321701,248.953827 228.579224,249.163239 
	C228.579224,249.163239 228.704071,249.282852 228.679260,249.720749 
	C229.679291,252.057816 230.704102,253.956970 231.728912,255.856140 
	C232.121719,255.657837 232.514542,255.459518 232.907349,255.261215 
	C232.185379,253.012878 231.463425,250.764526 230.297333,247.133072 
	C233.942337,249.252701 239.394852,244.169373 238.697296,251.826721 
z"/>
<path fill="#DCECF4" opacity="1.000000" stroke="none" 
	d="
M360.317993,265.797791 
	C357.113556,265.934967 354.317505,265.934967 350.225861,265.934967 
	C354.053772,259.572052 353.968781,253.644318 350.207703,247.171158 
	C355.556976,247.171158 359.670624,246.934631 363.746063,247.228302 
	C369.425201,247.637527 370.933807,252.594589 367.566620,258.251465 
	C368.508362,260.717621 369.370453,262.975189 370.815704,266.759888 
	C367.299774,265.773010 365.420410,265.074463 363.479736,264.779510 
	C362.626312,264.649780 361.647980,265.341705 360.317993,265.797791 
z"/>
<path fill="#DCECF4" opacity="1.000000" stroke="none" 
	d="
M309.113708,251.732559 
	C306.967743,250.967636 305.995667,246.840118 302.835449,250.653259 
	C302.356689,249.762314 302.225250,248.842194 302.093811,247.922058 
	C305.115662,246.987808 308.119080,245.895950 310.542633,249.248108 
	C310.816071,249.626282 312.051758,249.308762 313.259430,249.110321 
	C313.677643,248.906799 313.633423,248.917648 313.633423,248.917648 
	C317.371887,248.566437 321.397064,247.192383 324.771820,248.138489 
	C328.486603,249.179901 328.278320,253.353195 327.948364,256.974548 
	C327.186768,265.333588 325.933350,266.652161 317.799316,265.935699 
	C313.752319,265.579254 311.035431,263.716400 311.432251,258.994476 
	C311.625580,256.693817 311.464417,254.356689 311.314056,252.045807 
	C311.301086,251.846802 310.161346,251.721115 309.113708,251.732559 
M317.567505,256.012268 
	C317.742737,257.620209 317.917969,259.228149 318.116425,261.049377 
	C323.578674,261.968475 321.975647,257.888153 322.030182,255.442535 
	C322.055206,254.320984 320.885498,253.172806 320.257599,252.036697 
	C319.358978,253.079407 318.460327,254.122116 317.567505,256.012268 
z"/>
<path fill="#DCECF4" opacity="1.000000" stroke="none" 
	d="
M182.461334,247.170364 
	C187.453705,247.378647 193.152100,244.967514 195.898880,250.216461 
	C197.554245,253.379745 197.984558,257.969818 197.056702,261.402924 
	C196.504913,263.444519 192.405731,265.131836 189.618271,265.803650 
	C186.502991,266.554474 183.067322,265.975922 179.151169,265.975922 
	C179.359863,264.266724 179.621979,262.919281 179.670349,261.564178 
	C179.784851,258.355103 180.145172,255.097641 179.739166,251.945663 
	C179.429047,249.538177 177.571564,247.018967 182.461334,247.170364 
M190.314255,252.624664 
	C183.885361,253.503021 188.947922,258.039642 186.706833,261.321777 
	C193.068680,259.932037 190.769516,256.007019 190.314255,252.624664 
z"/>
<path fill="#DCECF4" opacity="1.000000" stroke="none" 
	d="
M210.167480,247.170914 
	C215.356552,248.944885 217.986893,255.598328 216.347855,261.862335 
	C215.513702,265.050232 209.699524,267.065918 204.649658,265.917908 
	C200.581863,264.993134 198.750656,260.283356 199.600983,252.932953 
	C200.095459,248.658447 203.576340,246.687546 210.167480,247.170914 
M205.848358,258.381897 
	C206.675980,259.242554 207.503601,260.103210 208.331223,260.963867 
	C208.894379,258.651703 209.595490,256.357178 209.894974,254.011368 
	C209.949600,253.583450 208.414276,252.798187 207.507095,252.503372 
	C207.260254,252.423141 206.397217,253.467255 206.223526,254.105942 
	C205.928345,255.191315 205.955811,256.364441 205.848358,258.381897 
z"/>
<path fill="#D3E4EF" opacity="1.000000" stroke="none" 
	d="
M382.022827,247.871033 
	C383.574890,247.630615 385.134644,247.173264 386.676208,247.228104 
	C387.659943,247.263092 389.139923,247.837982 389.444672,248.568344 
	C389.777557,249.366211 389.182129,250.713974 388.677826,251.653854 
	C388.151337,252.635025 387.222229,253.392960 386.520416,254.288635 
	C384.642578,256.685150 381.731720,258.892609 385.565063,262.134155 
	C386.125366,262.607941 385.642853,264.314911 385.642853,265.722290 
	C382.298737,265.722290 379.049347,265.722290 374.992340,265.722290 
	C376.627960,260.889587 377.657410,255.972870 372.298523,251.859680 
	C372.399963,244.602463 376.847687,248.996109 379.523132,247.913589 
	C379.849121,250.304169 380.106293,252.190201 380.363495,254.076218 
	C380.916595,254.051514 381.469727,254.026810 382.022827,254.002106 
	C382.022827,251.958420 382.022827,249.914719 382.022827,247.871033 
z"/>
<path fill="#DCECF4" opacity="1.000000" stroke="none" 
	d="
M261.926514,266.001556 
	C258.865112,266.001556 255.803711,266.001556 252.070572,266.001556 
	C253.126282,262.069855 254.023224,258.729462 255.038742,254.947449 
	C252.707245,255.191864 251.186935,255.351227 249.344666,254.851166 
	C249.114716,251.466522 247.952377,248.178970 252.120728,247.281174 
	C252.120728,247.281174 252.602097,247.169250 253.051300,247.259827 
	C253.500519,247.350418 253.901764,247.153839 253.901764,247.153839 
	C253.901764,247.153839 254.389862,247.165863 254.981201,247.445251 
	C258.968445,247.881058 262.364349,248.037476 266.342438,248.220718 
	C266.130066,250.681671 265.954651,252.714798 265.779205,254.747940 
	C265.199036,255.029877 264.618896,255.311813 264.038727,255.593750 
	C263.451355,254.086365 262.864014,252.578979 262.276642,251.071594 
	C261.645050,251.378952 261.013489,251.686310 260.381897,251.993668 
	C260.530090,253.697632 260.678253,255.401596 260.826416,257.105560 
	C260.835114,257.502167 260.843842,257.898743 260.633423,258.789490 
	C260.840271,259.915680 261.266296,260.547699 261.692291,261.179718 
	C261.692291,261.179718 261.811066,261.122955 261.874390,261.583130 
	C261.933990,263.362732 261.930267,264.682129 261.926514,266.001556 
z"/>
<path fill="#84ADD5" opacity="1.000000" stroke="none" 
	d="
M209.935638,206.208496 
	C210.985901,207.460434 211.906952,208.573425 213.086197,209.057587 
	C214.730530,209.732727 216.567902,209.937744 218.496063,211.321182 
	C215.823135,211.651291 213.150192,211.981384 210.404327,212.320496 
	C209.902557,215.312759 209.393265,218.349777 208.883972,221.386795 
	C208.181961,214.512024 205.879913,209.785828 197.107468,212.227432 
	C197.235382,211.662903 197.363297,211.098389 197.491211,210.533859 
	C200.501251,209.894119 203.511276,209.254379 206.456543,208.628403 
	C206.983353,206.036163 207.554291,203.226807 208.125229,200.417465 
	C208.342239,200.446777 208.559250,200.476089 208.776245,200.505402 
	C209.158051,202.266602 209.539841,204.027802 209.935638,206.208496 
z"/>
<path fill="#84ADD5" opacity="1.000000" stroke="none" 
	d="
M358.757721,216.286285 
	C358.390656,214.763870 358.178619,213.640701 357.964600,212.507187 
	C355.422791,212.021942 352.845459,211.529907 350.268158,211.037888 
	C350.292389,210.759613 350.316620,210.481339 350.340851,210.203064 
	C352.721405,209.734207 355.101990,209.265335 357.860687,208.722000 
	C358.351807,206.188644 358.892639,203.398849 359.433441,200.609070 
	C359.696381,200.548782 359.959320,200.488495 360.222260,200.428207 
	C360.890686,203.141800 361.559113,205.855408 362.246704,208.646774 
	C364.370056,209.153793 366.685516,209.706696 369.000946,210.259598 
	C369.001740,210.695892 369.002533,211.132187 369.003326,211.568481 
	C366.772034,211.802475 364.540741,212.036484 362.036133,212.299133 
	C361.543304,215.062515 361.036835,217.902252 360.530365,220.742004 
	C360.183533,220.791763 359.836700,220.841537 359.489868,220.891312 
	C359.297485,219.489380 359.105103,218.087448 358.757721,216.286285 
z"/>
<path fill="#84ADD5" opacity="1.000000" stroke="none" 
	d="
M251.733292,247.162216 
	C247.952377,248.178970 249.114716,251.466522 249.049133,254.621414 
	C248.486313,254.003006 247.897064,252.954910 247.421707,252.109436 
	C245.917694,253.000061 244.407791,253.894180 242.897888,254.788300 
	C242.347992,252.804535 241.322052,250.789993 241.447495,248.849899 
	C241.510925,247.868637 243.590729,246.390427 244.874924,246.257446 
	C246.982193,246.039230 249.183945,246.733673 251.733292,247.162216 
z"/>
<path fill="#638EBB" opacity="1.000000" stroke="none" 
	d="
M301.669800,247.850357 
	C302.225250,248.842194 302.356689,249.762314 302.688202,250.967392 
	C302.666931,252.123474 302.445587,252.994629 302.224243,253.865768 
	C301.520721,253.322388 300.437500,252.908234 300.198730,252.206680 
	C299.795898,251.023087 299.928253,249.657333 299.815948,248.095612 
	C296.889008,248.095612 294.168945,248.095612 291.322083,248.095612 
	C291.322083,250.452301 291.322083,252.510056 291.322083,254.567825 
	C290.943207,254.675522 290.564331,254.783203 290.185455,254.890884 
	C289.549927,252.701218 288.914368,250.511551 288.173492,247.958908 
	C285.886902,247.958908 283.440521,247.958908 280.561401,248.080521 
	C280.203735,247.894791 280.283661,247.317276 280.353180,247.318527 
	C287.317932,247.443634 294.281830,247.612473 301.669800,247.850357 
z"/>
<path fill="#DFECF4" opacity="1.000000" stroke="none" 
	d="
M194.940063,149.571777 
	C191.370468,149.657028 187.781158,149.308121 184.187836,149.007370 
	C179.801086,148.640213 177.600327,150.542435 177.996826,155.481644 
	C177.387146,153.905533 176.452637,151.933411 176.399429,149.937805 
	C176.384964,149.395218 178.983673,148.470871 180.459564,148.261826 
	C184.208801,147.730759 187.997833,147.345673 191.778870,147.262360 
	C192.811005,147.239639 193.871246,148.491852 194.940063,149.571777 
z"/>
<path fill="#DFECF4" opacity="1.000000" stroke="none" 
	d="
M209.041046,149.056915 
	C213.388657,144.084488 223.805878,142.760117 229.628876,146.980499 
	C229.920624,147.655991 229.965179,147.821915 229.790115,148.234192 
	C226.056503,145.592941 221.852875,145.506760 217.765793,146.160828 
	C214.784119,146.638016 211.957428,148.083694 209.053482,149.088089 
	C209.045303,149.078552 209.041046,149.056915 209.041046,149.056915 
z"/>
<path fill="#638EBB" opacity="1.000000" stroke="none" 
	d="
M229.921707,157.802490 
	C229.607559,158.087784 229.166779,158.038010 228.380676,157.964798 
	C228.035324,157.941376 228.080963,157.944611 227.969589,157.780304 
	C227.638397,157.421265 227.389999,157.372635 226.686539,157.367920 
	C223.944519,157.136566 221.628967,157.007401 219.206879,156.523651 
	C220.252975,154.883530 221.405594,153.597992 222.917786,152.572418 
	C225.998764,153.787766 228.720154,154.743134 231.441528,155.698502 
	C231.777908,155.191132 232.114288,154.683762 232.450668,154.176392 
	C232.107056,152.315018 231.763443,150.453659 231.563538,148.445007 
	C231.707260,148.297729 231.993530,148.002029 231.993530,148.002029 
	C235.129486,153.142136 234.831161,154.141159 229.607239,156.220505 
	C229.518478,156.255814 229.725876,157.035233 229.921707,157.802490 
z"/>
<path fill="#84ADD5" opacity="1.000000" stroke="none" 
	d="
M261.115448,256.875671 
	C260.678253,255.401596 260.530090,253.697632 260.381897,251.993668 
	C261.013489,251.686310 261.645050,251.378952 262.276642,251.071594 
	C262.864014,252.578979 263.451355,254.086365 264.038727,255.593750 
	C264.618896,255.311813 265.199036,255.029877 265.779205,254.747940 
	C265.954651,252.714798 266.130066,250.681671 266.342438,248.220718 
	C262.364349,248.037476 258.968445,247.881058 255.219147,247.499756 
	C257.642151,247.182983 260.429810,247.216125 263.191956,246.966812 
	C266.476959,246.670273 268.158661,247.683594 267.832703,251.293762 
	C267.545654,254.472244 267.048431,256.985565 262.873840,255.358765 
	C262.593750,255.249603 261.903778,256.192291 261.115448,256.875671 
z"/>
<path fill="#638EBB" opacity="1.000000" stroke="none" 
	d="
M288.296143,159.995209 
	C292.754181,161.024918 297.116852,162.451187 301.479492,163.877472 
	C301.282074,164.460403 301.084656,165.043335 300.887207,165.626266 
	C298.048248,166.235840 295.516083,167.250305 292.780975,164.012131 
	C291.645813,162.668198 288.178619,163.294037 285.319153,163.055664 
	C285.977844,162.188751 287.089294,161.290268 288.296143,159.995209 
z"/>
<path fill="#14283D" opacity="1.000000" stroke="none" 
	d="
M307.193481,155.816116 
	C302.865875,155.087036 298.645844,154.122681 294.425842,153.158340 
	C294.506317,152.641052 294.586792,152.123764 294.667267,151.606476 
	C297.078674,151.444717 299.474731,148.461792 301.929779,152.963272 
	C302.516663,154.039383 305.385376,153.870987 307.648804,154.265198 
	C307.829010,154.697235 307.565033,155.139053 307.193481,155.816116 
z"/>
<path fill="#638EBB" opacity="1.000000" stroke="none" 
	d="
M239.115372,251.764145 
	C239.394852,244.169373 233.942337,249.252701 230.297333,247.133072 
	C231.463425,250.764526 232.185379,253.012878 232.907349,255.261215 
	C232.514542,255.459518 232.121719,255.657837 231.728912,255.856140 
	C230.704102,253.956970 229.679291,252.057816 228.698441,249.805038 
	C231.477997,245.250000 235.595703,247.434341 239.867508,246.903214 
	C239.741486,248.713211 239.637451,250.207382 239.115372,251.764145 
z"/>
<path fill="#638EBB" opacity="1.000000" stroke="none" 
	d="
M381.612091,247.795105 
	C382.022827,249.914719 382.022827,251.958420 382.022827,254.002106 
	C381.469727,254.026810 380.916595,254.051514 380.363495,254.076218 
	C380.106293,252.190201 379.849121,250.304169 379.523132,247.913589 
	C376.847687,248.996109 372.399963,244.602463 372.063538,251.619873 
	C371.616974,250.647919 371.127167,249.231369 370.232727,246.644592 
	C374.559998,247.068527 377.880676,247.393845 381.612091,247.795105 
z"/>
<path fill="#DFECF4" opacity="1.000000" stroke="none" 
	d="
M196.651550,153.673355 
	C196.068741,152.912521 195.528976,151.836105 194.996674,150.413864 
	C195.567627,151.164627 196.131104,152.261185 196.651550,153.673355 
z"/>
<path fill="#84ADD5" opacity="1.000000" stroke="none" 
	d="
M262.305176,265.905701 
	C261.930267,264.682129 261.933990,263.362732 261.893921,261.645996 
	C262.128021,262.769043 262.405914,264.289429 262.305176,265.905701 
z"/>
<path fill="#84ADD5" opacity="1.000000" stroke="none" 
	d="
M261.665710,260.854858 
	C261.266296,260.547699 260.840271,259.915680 260.622742,259.086914 
	C261.100494,259.436768 261.369781,259.983368 261.665710,260.854858 
z"/>
<path fill="#638EBB" opacity="1.000000" stroke="none" 
	d="
M230.009720,147.987839 
	C229.965179,147.821915 229.920624,147.655991 229.872406,147.231415 
	C230.470703,147.135590 231.072708,147.298447 231.834106,147.731659 
	C231.993530,148.002029 231.707260,148.297729 231.339569,148.318115 
	C230.651154,148.221603 230.330429,148.104721 230.009720,147.987839 
z"/>
<path fill="#638EBB" opacity="1.000000" stroke="none" 
	d="
M228.662766,248.889832 
	C228.321701,248.953827 228.064163,248.744431 227.825424,248.264206 
	C228.144928,248.201050 228.445618,248.408737 228.662766,248.889832 
z"/>
<path fill="#DFECF4" opacity="1.000000" stroke="none" 
	d="
M313.696472,248.858032 
	C313.633423,248.917648 313.677643,248.906799 313.696106,248.911346 
	C313.714539,248.915878 313.759491,248.798416 313.696472,248.858032 
z"/>
<path fill="#84ADD5" opacity="1.000000" stroke="none" 
	d="
M253.862976,246.941559 
	C253.901764,247.153839 253.500519,247.350418 253.298309,247.253113 
	C253.338806,247.013626 253.581497,246.871445 253.862976,246.941559 
z"/>
<path fill="#DFECF4" opacity="1.000000" stroke="none" 
	d="
M208.065186,150.039764 
	C208.217941,149.749954 208.383224,149.467026 208.794769,149.120514 
	C209.041046,149.056915 209.045303,149.078552 208.936859,149.288818 
	C208.633972,149.748840 208.391754,149.937088 208.101746,150.063858 
	C208.101746,150.063858 208.077713,150.046677 208.065186,150.039764 
z"/>
<path fill="#14283D" opacity="1.000000" stroke="none" 
	d="
M282.052063,213.927704 
	C278.881226,216.417114 275.695404,218.974121 271.577301,215.710052 
	C269.184052,213.813141 267.396118,204.761261 269.658234,203.566162 
	C272.781281,201.916229 276.766846,201.416458 280.360626,201.491592 
	C281.219635,201.509567 281.990356,205.748428 282.692017,208.781601 
	C282.405609,210.987381 282.228851,212.457535 282.052063,213.927704 
M275.463470,212.833191 
	C280.812012,213.098755 278.138458,209.022949 278.480713,206.803925 
	C278.592804,206.077103 276.877594,205.068420 275.998016,204.188629 
	C275.246429,205.914719 274.264709,207.586105 273.836060,209.388962 
	C273.606689,210.353592 274.330200,211.544800 275.463470,212.833191 
z"/>
<path fill="#14283D" opacity="1.000000" stroke="none" 
	d="
M255.868011,201.824097 
	C259.128845,201.946838 262.450836,201.781921 265.595703,202.450302 
	C266.180603,202.574631 266.053131,206.050522 265.659729,208.426178 
	C262.719025,209.578186 260.373047,210.283615 258.027069,210.989044 
	C258.089264,211.592987 258.151428,212.196915 258.213593,212.800858 
	C259.731445,212.800858 261.255859,212.888702 262.765167,212.775406 
	C264.189056,212.668533 265.597076,212.349960 267.012054,212.124512 
	C267.006226,213.199997 267.000397,214.275467 266.565125,215.731445 
	C262.983643,216.309265 259.831604,216.506622 256.679596,216.703964 
	C256.394379,216.631775 256.105103,216.606995 255.525238,216.329239 
	C254.864594,214.966919 254.490433,213.904968 254.116287,212.843033 
	C254.139282,212.464188 254.162277,212.085342 254.279388,211.157486 
	C254.291382,210.428986 254.209290,210.249481 254.127213,210.069992 
	C254.127213,210.069992 254.084381,210.033737 254.367950,209.813385 
	C257.425995,208.296234 260.200439,206.999405 262.974915,205.702591 
	C261.311371,204.591415 259.779083,204.698380 258.244904,204.750351 
	C256.895508,204.796051 255.544022,204.780197 254.193451,204.791534 
	C254.306915,204.276016 254.420364,203.760498 254.936401,202.968689 
	C255.515335,202.402954 255.691681,202.113525 255.868011,201.824097 
z"/>
<path fill="#14283D" opacity="1.000000" stroke="none" 
	d="
M301.196289,204.613098 
	C300.879852,202.037827 301.753357,200.573441 304.614380,200.763214 
	C307.562469,200.958771 310.517670,201.047577 313.023987,201.162628 
	C313.312958,204.972717 313.723969,208.437943 313.800446,211.910553 
	C313.889526,215.954376 308.568390,218.265137 303.755798,216.116409 
	C302.266449,215.451416 301.196472,213.847183 300.395294,212.183990 
	C303.738892,212.147110 306.621674,212.599197 309.550293,213.058472 
	C309.114044,209.765274 308.779358,207.238785 308.347961,203.982391 
	C306.605499,204.515823 304.311157,205.218216 302.016815,205.920609 
	C302.016815,205.920609 302.028625,205.992996 301.977722,205.702179 
	C301.683289,205.145294 301.439789,204.879196 301.196289,204.613098 
z"/>
<path fill="#000001" opacity="1.000000" stroke="none" 
	d="
M286.096161,208.939011 
	C286.348938,208.819489 286.563232,208.651001 287.162018,208.259659 
	C289.922852,207.494171 292.260773,206.902588 294.598663,206.311020 
	C294.468384,205.612808 294.338104,204.914597 294.207825,204.216370 
	C291.857117,204.567322 289.506409,204.918274 286.908508,205.306137 
	C286.908508,204.406784 286.908508,203.165756 286.908508,201.924728 
	C286.908508,201.924728 286.992798,201.982407 287.316101,201.860748 
	C288.786102,201.502426 289.932739,201.265747 291.079407,201.029068 
	C293.378082,201.713943 295.676788,202.398819 297.975464,203.083710 
	C297.056824,205.138153 296.138184,207.192612 294.685486,209.578644 
	C292.385406,210.342789 290.619415,210.775360 288.853394,211.207947 
	C288.975922,211.834671 289.098450,212.461395 289.220978,213.088135 
	C291.100800,212.916016 292.982483,212.604370 294.859680,212.629288 
	C295.831421,212.642197 296.795258,213.251633 297.762665,213.591568 
	C297.308990,214.361038 297.038300,215.537018 296.373047,215.836441 
	C290.399292,218.525223 285.781158,215.374359 286.096161,208.939011 
z"/>
<path fill="#638EBB" opacity="1.000000" stroke="none" 
	d="
M285.700806,208.936462 
	C285.781158,215.374359 290.399292,218.525223 296.373047,215.836441 
	C297.038300,215.537018 297.308990,214.361038 297.762665,213.591568 
	C296.795258,213.251633 295.831421,212.642197 294.859680,212.629288 
	C292.982483,212.604370 291.100800,212.916016 289.220978,213.088135 
	C289.098450,212.461395 288.975922,211.834671 288.853394,211.207947 
	C290.619415,210.775360 292.385406,210.342789 294.567444,209.920868 
	C299.290344,210.384567 299.341522,213.099686 298.312317,217.015671 
	C293.187805,215.693054 287.282288,219.915970 282.434601,214.018524 
	C282.228851,212.457535 282.405609,210.987381 282.759308,209.185669 
	C283.725983,208.880737 284.515686,208.907333 285.700806,208.936462 
z"/>
<path fill="#84ADD5" opacity="1.000000" stroke="none" 
	d="
M302.266846,206.179230 
	C304.311157,205.218216 306.605499,204.515823 308.347961,203.982391 
	C308.779358,207.238785 309.114044,209.765274 309.550293,213.058472 
	C306.621674,212.599197 303.738892,212.147110 300.443756,211.809723 
	C302.728302,211.743088 305.425201,211.561752 308.688812,211.342316 
	C306.581757,209.667969 304.549316,208.052902 302.266846,206.179230 
z"/>
<path fill="#84ADD5" opacity="1.000000" stroke="none" 
	d="
M286.560120,202.036835 
	C286.908508,203.165756 286.908508,204.406784 286.908508,205.306137 
	C289.506409,204.918274 291.857117,204.567322 294.207825,204.216370 
	C294.338104,204.914597 294.468384,205.612808 294.598663,206.311020 
	C292.260773,206.902588 289.922852,207.494171 287.270660,208.084900 
	C285.698944,206.232300 283.313080,204.522110 286.560120,202.036835 
z"/>
<path fill="#84ADD5" opacity="1.000000" stroke="none" 
	d="
M254.090179,205.134888 
	C255.544022,204.780197 256.895508,204.796051 258.244904,204.750351 
	C259.779083,204.698380 261.311371,204.591415 262.974915,205.702591 
	C260.200439,206.999405 257.425995,208.296234 254.381775,209.828323 
	C254.070312,208.535156 254.028610,207.006699 254.090179,205.134888 
z"/>
<path fill="#84ADD5" opacity="1.000000" stroke="none" 
	d="
M267.033691,211.735229 
	C265.597076,212.349960 264.189056,212.668533 262.765167,212.775406 
	C261.255859,212.888702 259.731445,212.800858 258.213593,212.800858 
	C258.151428,212.196915 258.089264,211.592987 258.027069,210.989044 
	C260.373047,210.283615 262.719025,209.578186 265.424316,208.704742 
	C266.207550,209.473145 266.631470,210.409546 267.033691,211.735229 
z"/>
<path fill="#84ADD5" opacity="1.000000" stroke="none" 
	d="
M257.133667,216.854126 
	C259.831604,216.506622 262.983643,216.309265 266.572601,216.004608 
	C263.868958,216.266281 260.728333,216.635269 257.133667,216.854126 
z"/>
<path fill="#84ADD5" opacity="1.000000" stroke="none" 
	d="
M253.873932,213.111404 
	C254.490433,213.904968 254.864594,214.966919 255.308899,216.359772 
	C254.796555,215.587036 254.214066,214.483414 253.873932,213.111404 
z"/>
<path fill="#84ADD5" opacity="1.000000" stroke="none" 
	d="
M290.696777,200.938797 
	C289.932739,201.265747 288.786102,201.502426 287.281921,201.822662 
	C288.054352,201.553665 289.184265,201.201096 290.696777,200.938797 
z"/>
<path fill="#84ADD5" opacity="1.000000" stroke="none" 
	d="
M255.608154,201.876892 
	C255.691681,202.113525 255.515335,202.402954 255.080765,202.745270 
	C254.997787,202.508667 255.173050,202.219193 255.608154,201.876892 
z"/>
<path fill="#84ADD5" opacity="1.000000" stroke="none" 
	d="
M253.933655,210.128540 
	C254.209290,210.249481 254.291382,210.428986 254.239517,210.875046 
	C253.983734,210.823441 253.861923,210.505249 253.933655,210.128540 
z"/>
<path fill="#84ADD5" opacity="1.000000" stroke="none" 
	d="
M301.121521,204.952087 
	C301.439789,204.879196 301.683289,205.145294 301.999084,205.672363 
	C301.729797,205.719254 301.388245,205.505157 301.121521,204.952087 
z"/>
<path fill="#E1EDF4" opacity="1.000000" stroke="none" 
	d="
M208.073929,150.486969 
	C208.391754,149.937088 208.633972,149.748840 208.945038,149.298355 
	C211.957428,148.083694 214.784119,146.638016 217.765793,146.160828 
	C221.852875,145.506760 226.056503,145.592941 229.790115,148.234192 
	C230.330429,148.104721 230.651154,148.221603 231.195847,148.465393 
	C231.763443,150.453659 232.107056,152.315018 232.450668,154.176392 
	C232.114288,154.683762 231.777908,155.191132 231.441528,155.698502 
	C228.720154,154.743134 225.998764,153.787766 222.628693,152.459137 
	C218.772491,151.704010 215.955139,152.162735 213.926056,156.173187 
	C216.043228,156.450272 217.678314,156.664261 219.313400,156.878235 
	C221.628967,157.007401 223.944519,157.136566 226.821686,157.492767 
	C227.595016,157.859329 227.827576,157.934250 228.080963,157.944611 
	C228.080963,157.944611 228.035324,157.941376 228.048828,157.920288 
	C229.597565,160.157211 231.318176,162.314117 232.619064,164.699890 
	C234.103989,167.423233 231.042679,172.757736 226.967682,173.886841 
	C223.847183,174.751465 220.461899,174.708389 217.184830,174.923370 
	C216.450424,174.971542 215.471329,174.614807 214.957077,174.095627 
	C213.116440,172.237366 211.427094,170.229218 209.116013,167.647049 
	C210.554825,167.647049 211.919388,167.515884 213.249756,167.673477 
	C216.322906,168.037506 219.369843,168.722992 222.448212,168.886459 
	C223.471695,168.940826 224.558594,167.801193 225.616516,167.207428 
	C224.991852,166.119049 224.625992,164.546265 223.687668,164.044891 
	C221.836319,163.055664 219.709351,162.384888 217.622757,162.069733 
	C210.930542,161.058975 207.970840,157.729309 208.073929,150.486969 
z"/>
<path fill="#000001" opacity="1.000000" stroke="none" 
	d="
M164.361099,169.670776 
	C164.186493,170.909286 164.065826,172.340454 163.440613,172.612640 
	C161.752869,173.347397 159.863510,173.721420 158.020950,173.904602 
	C157.685226,173.938004 156.739273,171.747162 156.841629,171.675293 
	C158.035339,170.837433 159.354584,170.162842 160.686401,169.543488 
	C161.413162,169.205521 162.227066,169.054977 163.384583,168.760712 
	C163.906631,168.912628 164.045792,169.123749 164.361099,169.670776 
z"/>
<path fill="#000001" opacity="1.000000" stroke="none" 
	d="
M156.116257,160.055176 
	C156.116257,160.055176 156.308533,159.808975 156.895447,159.952087 
	C158.952850,160.107864 160.423355,160.120529 161.893845,160.133209 
	C163.638214,163.504913 160.174683,162.138199 158.466171,163.011841 
	C157.143402,162.978195 156.583328,162.994934 156.023254,163.011673 
	C156.023254,163.011673 155.986465,163.003754 156.070541,162.628433 
	C156.141830,161.520462 156.129044,160.787827 156.116257,160.055176 
z"/>
<path fill="#14283D" opacity="1.000000" stroke="none" 
	d="
M161.752869,159.795242 
	C160.423355,160.120529 158.952850,160.107864 157.047974,159.985748 
	C158.279678,159.736633 159.945801,159.596954 161.752869,159.795242 
z"/>
<path fill="#14283D" opacity="1.000000" stroke="none" 
	d="
M155.817291,160.130981 
	C156.129044,160.787827 156.141830,161.520462 156.075714,162.610352 
	C155.837296,162.047333 155.677811,161.127060 155.817291,160.130981 
z"/>
<path fill="#14283D" opacity="1.000000" stroke="none" 
	d="
M156.100616,163.315247 
	C156.583328,162.994934 157.143402,162.978195 158.110260,163.079651 
	C157.737350,163.338165 156.957672,163.478500 156.100616,163.315247 
z"/>
<path fill="#14283D" opacity="1.000000" stroke="none" 
	d="
M333.438049,155.582672 
	C330.147186,156.315277 326.611908,157.509506 327.867584,151.659698 
	C330.129974,152.726425 334.502686,149.386703 333.438049,155.582672 
z"/>
<path fill="#638EBB" opacity="1.000000" stroke="none" 
	d="
M317.564606,255.588547 
	C318.460327,254.122116 319.358978,253.079407 320.257599,252.036697 
	C320.885498,253.172806 322.055206,254.320984 322.030182,255.442535 
	C321.975647,257.888153 323.578674,261.968475 318.116425,261.049377 
	C317.917969,259.228149 317.742737,257.620209 317.564606,255.588547 
z"/>
<path fill="#14283D" opacity="1.000000" stroke="none" 
	d="
M190.644684,252.892044 
	C190.769516,256.007019 193.068680,259.932037 186.706833,261.321777 
	C188.947922,258.039642 183.885361,253.503021 190.644684,252.892044 
z"/>
<path fill="#14283D" opacity="1.000000" stroke="none" 
	d="
M205.848022,257.941284 
	C205.955811,256.364441 205.928345,255.191315 206.223526,254.105942 
	C206.397217,253.467255 207.260254,252.423141 207.507095,252.503372 
	C208.414276,252.798187 209.949600,253.583450 209.894974,254.011368 
	C209.595490,256.357178 208.894379,258.651703 208.331223,260.963867 
	C207.503601,260.103210 206.675980,259.242554 205.848022,257.941284 
z"/>
<path fill="#DFECF4" opacity="1.000000" stroke="none" 
	d="
M219.206879,156.523651 
	C217.678314,156.664261 216.043228,156.450272 213.926056,156.173187 
	C215.955139,152.162735 218.772491,151.704010 222.269089,152.199158 
	C221.405594,153.597992 220.252975,154.883530 219.206879,156.523651 
z"/>
<path fill="#DFECF4" opacity="1.000000" stroke="none" 
	d="
M227.969589,157.780304 
	C227.827576,157.934250 227.595016,157.859329 227.248138,157.594955 
	C227.389999,157.372635 227.638397,157.421265 227.969589,157.780304 
z"/>
<path fill="#D3E4EF" opacity="1.000000" stroke="none" 
	d="
M275.043579,212.733459 
	C274.330200,211.544800 273.606689,210.353592 273.836060,209.388962 
	C274.264709,207.586105 275.246429,205.914719 275.998047,204.188629 
	C276.877594,205.068420 278.592804,206.077103 278.480713,206.803925 
	C278.138458,209.022949 280.812012,213.098755 275.043579,212.733459 
z"/>
</svg>